<svg width="19" height="22" viewBox="0 0 19 22" fill="none" xmlns="http://www.w3.org/2000/svg">
<path d="M17.2709 17.7349L14.017 20.9879L10.7651 17.7349L10.7651 17.7349C10.3712 17.3411 10.15 16.807 10.15 16.25C10.15 15.693 10.3712 15.1589 10.7651 14.7651C11.1589 14.3712 11.693 14.15 12.25 14.15C12.8068 14.15 13.3408 14.3711 13.7346 14.7648C13.7347 14.7649 13.7348 14.765 13.7349 14.7651L13.9106 14.9418L14.0164 15.0481L14.1228 14.9424L14.3008 14.7654L14.3011 14.7651C14.4961 14.5701 14.7276 14.4154 14.9824 14.3098C15.2371 14.2043 15.5102 14.15 15.786 14.15C16.0618 14.15 16.3349 14.2043 16.5896 14.3098C16.8444 14.4154 17.0759 14.5701 17.2709 14.7651C17.4659 14.9601 17.6206 15.1916 17.7262 15.4464C17.8317 15.7011 17.886 15.9742 17.886 16.25C17.886 16.5258 17.8317 16.7989 17.7262 17.0536C17.6206 17.3084 17.4659 17.5399 17.271 17.7349C17.2709 17.7349 17.2709 17.7349 17.2709 17.7349ZM2.15 6V5.99995C2.14946 4.48624 2.73587 3.0313 3.78594 1.94104C4.83568 0.851139 6.26701 0.210582 7.77913 0.15395L8.00133 0.15C11.2329 0.150716 13.85 2.76828 13.85 6V6.00005C13.8505 7.51376 13.2641 8.9687 12.2141 10.059C11.1643 11.1489 9.733 11.7894 8.22087 11.846L7.99863 11.85C4.7671 11.8493 2.15 9.2317 2.15 6ZM7.75359 13.154L7.85 13.1524V14.8518C6.27327 14.8903 4.76924 15.5333 3.65129 16.6513C2.53335 17.7692 1.89025 19.2733 1.85183 20.85H0.151433C0.18936 18.8647 0.978604 16.9652 2.36318 15.5367C3.78234 14.0725 5.71553 13.218 7.75359 13.154ZM8 1.85C5.70716 1.85 3.85 3.70716 3.85 6C3.85 8.29284 5.70716 10.15 8 10.15C10.2928 10.15 12.15 8.29284 12.15 6C12.15 3.70716 10.2928 1.85 8 1.85Z" fill="white" stroke="url(#paint0_linear_477_2588)" stroke-width="0.3"/>
<defs>
<linearGradient id="paint0_linear_477_2588" x1="9.01801" y1="0" x2="9.01801" y2="21.2" gradientUnits="userSpaceOnUse">
<stop stop-color="#8639B5"/>
<stop offset="1" stop-color="#092056"/>
</linearGradient>
</defs>
</svg>
