<svg width="20" height="20" viewBox="0 0 20 20" fill="none" xmlns="http://www.w3.org/2000/svg">
<path d="M14.85 2V2.15H15H19C19.2254 2.15 19.4416 2.23955 19.601 2.39896C19.7604 2.55837 19.85 2.77457 19.85 3V19C19.85 19.2254 19.7604 19.4416 19.601 19.601C19.4416 19.7604 19.2254 19.85 19 19.85H1C0.774566 19.85 0.558365 19.7604 0.398959 19.601C0.239553 19.4416 0.15 19.2254 0.15 19V3C0.15 2.77457 0.239553 2.55837 0.398959 2.39896C0.558365 2.23955 0.774566 2.15 1 2.15H5H5.15V2V0.15H6.85V2V2.15H7H13H13.15V2V0.15H14.85V2ZM13.15 4V3.85H13H7H6.85V4V5.85H5.15V4V3.85H5H2H1.85V4V8V8.15H2H18H18.15V8V4V3.85H18H15H14.85V4V5.85H13.15V4ZM18.15 10V9.85H18H2H1.85V10V18V18.15H2H18H18.15V18V10Z" fill="white" stroke="url(#paint0_linear_477_2585)" stroke-width="0.3"/>
<defs>
<linearGradient id="paint0_linear_477_2585" x1="10" y1="0" x2="10" y2="20" gradientUnits="userSpaceOnUse">
<stop stop-color="#8639B5"/>
<stop offset="1" stop-color="#092056"/>
</linearGradient>
</defs>
</svg>
