<svg width="22" height="19" viewBox="0 0 22 19" fill="none" xmlns="http://www.w3.org/2000/svg">
<path d="M17.5464 5.85099C17.8442 5.28057 18.0004 4.6459 18.0005 4.00075C18.0006 3.29847 17.8158 2.60853 17.4647 2.0003C17.1137 1.39207 16.6086 0.887002 16.0004 0.53587C15.3922 0.184738 14.7023 -7.73774e-05 14 6.1847e-06C13.4323 -0.000994248 12.8709 0.119389 12.3535 0.353084C11.8819 0.56606 11.4569 0.868663 11.1017 1.24356L17.5464 5.85099ZM17.5464 5.85099L17.464 5.85101L17.464 6.00101L17.5939 6.07604C17.6083 6.05115 17.6224 6.02612 17.6362 6.00097L17.5464 5.85099ZM11.8553 3.83875L11.8554 3.83876C11.8961 3.29786 12.1397 2.79234 12.5375 2.42352C12.9352 2.0547 13.4576 1.84985 14 1.85001L11.8553 3.83875ZM11.8553 3.83875L11.8551 3.84501M11.8553 3.83875L11.8551 3.84501M11.8551 3.84501L11.8501 3.99501L11.85 3.99501M11.8551 3.84501L11.85 3.99501M11.85 3.99501V4.00001M11.85 3.99501V4.00001M11.85 4.00001V6.00001V6.15001M11.85 4.00001V6.15001M11.85 6.15001H12M11.85 6.15001H12M12 6.15001H14C14 6.15001 14 6.15001 14 6.15001C14.5424 6.15017 15.0648 5.94531 15.4625 5.5765C15.8603 5.20767 16.1039 4.70215 16.1446 4.16126L16.1447 4.16127M12 6.15001L16.1447 4.16127M16.1447 4.16127L16.1449 4.155M16.1447 4.16127L16.1449 4.155M16.1449 4.155L16.1499 4.005L16.15 4.00501M16.1449 4.155L16.15 4.00501M16.15 4.00501V4.00001M16.15 4.00501V4.00001M16.15 4.00001C16.15 3.42979 15.9235 2.88293 15.5203 2.47973M16.15 4.00001L15.5203 2.47973M15.5203 2.47973C15.1171 2.07653 14.5702 1.85002 14 1.85001L15.5203 2.47973ZM13.9997 0.150006L14 0.150006C14.676 0.149926 15.34 0.327811 15.9254 0.665775C16.5108 1.00374 16.9969 1.48987 17.3348 2.07529C17.6728 2.66071 17.8506 3.32478 17.8505 4.00073C17.8503 4.67667 17.6723 5.34068 17.3341 5.92597L17.2041 6.15106L17.464 6.15101L21.85 6.15004V7.85001H20H19.85V8.00001V18C19.85 18.2254 19.7604 18.4416 19.601 18.601C19.4416 18.7605 19.2254 18.85 19 18.85H3C2.77457 18.85 2.55837 18.7605 2.39896 18.601C2.23955 18.4416 2.15 18.2254 2.15 18V8.00001V7.85001H2H0.15V6.15004L4.53597 6.15101L4.79587 6.15106L4.66589 5.92599C4.18836 5.0991 4.03516 4.12425 4.23603 3.19073C4.43689 2.25722 4.9775 1.43166 5.75288 0.874361C6.52826 0.317059 7.48307 0.0677833 8.43192 0.174937C9.38076 0.282092 10.2559 0.738028 10.8875 1.45422L11.0002 1.58207L11.1127 1.45398C11.4732 1.04342 11.9173 0.714681 12.4152 0.489787C12.9131 0.264892 13.4534 0.149043 13.9997 0.150006ZM10.15 8.00001V7.85001H10H4H3.85V8.00001V17V17.15H4H10H10.15V17V8.00001ZM18.15 8.00001V7.85001H18H12H11.85V8.00001V17V17.15H12H18H18.15V17V8.00001ZM8.00503 1.85009L8.00503 1.85003L8.00067 1.85001C7.44276 1.84751 6.90573 2.06198 6.50303 2.44811C6.10033 2.83425 5.8635 3.3618 5.84256 3.91932C5.82163 4.47684 6.01824 5.02066 6.39085 5.4359C6.76346 5.85115 7.2829 6.10529 7.83942 6.14463L7.83941 6.14474L7.845 6.14492L7.995 6.14992L7.995 6.15001H8H10H10.15V6.00001V4.00001C10.15 3.48623 9.96605 2.98942 9.63141 2.59956C9.29677 2.20971 8.83358 1.95258 8.32573 1.87474L8.32574 1.87464L8.32041 1.87402L8.16641 1.85602L8.16647 1.85551L8.15403 1.85509L8.00503 1.85009Z" fill="white" stroke="url(#paint0_linear_477_2582)" stroke-width="0.3"/>
<defs>
<linearGradient id="paint0_linear_477_2582" x1="11" y1="0" x2="11" y2="19" gradientUnits="userSpaceOnUse">
<stop stop-color="#8639B5"/>
<stop offset="1" stop-color="#092056"/>
</linearGradient>
</defs>
</svg>
