<svg width="18" height="19" viewBox="0 0 18 19" fill="none" xmlns="http://www.w3.org/2000/svg">
<g clip-path="url(#clip0_5659_2069)">
<path d="M14.8999 5.81676L9.05326 11.0528L3.09924 5.79952L2.85 5.57961V5.912V14.75V14.9H3H10.35V16.1H2.25C2.09087 16.1 1.93826 16.0368 1.82574 15.9243C1.71321 15.8117 1.65 15.6591 1.65 15.5V3.5C1.65 3.34087 1.71321 3.18826 1.82574 3.07574C1.93826 2.96321 2.09087 2.9 2.25 2.9H15.75C15.9091 2.9 16.0617 2.96321 16.1743 3.07574C16.2868 3.18826 16.35 3.34087 16.35 3.5V10.1H15.15V5.9285V5.59281L14.8999 5.81676ZM3.38325 4.1H2.98654L3.284 4.36247L8.9465 9.35897L9.04647 9.44719L9.1458 9.35825L14.7266 4.36175L15.0189 4.1H14.6265H3.38325ZM15.6 14V14.15H15.75H17.85V15.35H15.75H15.6V15.5V17.6H14.4V15.5V15.35H14.25H12.15V14.15H14.25H14.4V14V11.9H15.6V14Z" fill="white" stroke="white" stroke-width="0.3"/>
</g>
<defs>
<clipPath id="clip0_5659_2069">
<rect width="18" height="18" fill="white" transform="translate(0 0.5)"/>
</clipPath>
</defs>
</svg>
